# xmcd
#
# Track frame offsets:
# 150
# 11625
# 24942
# 38917
# 52810
# 64920
# 74800
# 91237
# 103517
# 116100
# 129129
# 142127
# 156962
# 170022
# 182740
# 196075
# 211657
#
# Disc length: 2986 seconds
#
# Revision: 1
# Processed by: cddbd v1.5.1PL0 Copyright (c) Steve Scherf et al.
# Submitted via: CedeCatalogueitor 2.6.0.4 http://personales.ya.com/cdcatalogueitor
#
DISCID=eb0ba811
DTITLE=PEPE MARCHENA - UN MONUMENTO AL CANTE  [CD-2)
DYEAR=1997
DGENRE=FLAMENCO
TTITLE0=Pinceladas Andaluzas
TTITLE1=La Conocí En Tampico
TTITLE2=Aires De Los Romeros De Almonte
TTITLE3=En El Agua Cristalina
TTITLE4=Cuando Pase Esa Mujer
TTITLE5=Julio Romero Pintó
TTITLE6=Canción De Las Ventas
TTITLE7=Por Culpa De Una Serrana
TTITLE8=Madre Del Cielo Y Señora
TTITLE9=Pero Yo Ahira No Te Quiero
TTITLE10=Ventanas A La Calle
TTITLE11=Tú Levantaste El Vuelo
TTITLE12=Dime Donde Estás Metida
TTITLE13=Al Encontrarte Perdida - Cruzan Las Manos - Tengo Un Libro Yo
TTITLE14=Ni Los Templarios De Roma
TTITLE15=Sol Y Sombra
TTITLE16=Entre  Zarzales
EXTD=
EXTT0=
EXTT1=
EXTT2=
EXTT3=
EXTT4=
EXTT5=
EXTT6=
EXTT7=
EXTT8=
EXTT9=
EXTT10=
EXTT11=
EXTT12=
EXTT13=
EXTT14=
EXTT15=
EXTT16=
PLAYORDER=
